<svg preserveAspectRatio="xMidYMid meet" data-bbox="0.558 0.13 196.922 50.5" xmlns="http://www.w3.org/2000/svg" viewBox="0.558 0.13 196.922 50.5" height="51" width="198" data-type="color" role="presentation" aria-hidden="true"><defs><style>#comp-kq5dfshk1 svg [data-color="1"] {fill: #16163F;}</style></defs>
    <g fill-rule="evenodd">
        <path d="M105.583.13v50.5H.558V.13h105.025zM25.245 12.093H14.19v3.357h2.882v17.397H14.19v3.323h11.597c1.289 0 2.408-.068 3.595-.407 2.611-.78 4.781-3.188 4.781-6.545 0-2.543-1.22-4.883-3.9-5.697v-.068c1.866-.983 2.95-2.916 2.95-5.154 0-2.68-1.491-4.714-3.662-5.562-1.254-.509-2.509-.644-4.306-.644zm29.092 0h-5.053l-7.223 20.754h-2.204v3.323h9.02v-3.323h-2.374l1.492-4.51h7.597l1.492 4.51H54.71v3.323h9.054v-3.323H61.56l-7.223-20.754zm25.735 0H69.457v3.357h2.883v17.397h-2.883v3.323h10.106v-3.323h-2.78v-5.9h2.204c1.39 0 1.83.304 2.34 1.22l3.425 6.206c.746 1.39 1.356 1.797 3.357 1.797h2.814v-3.323h-.78c-.813 0-1.288-.17-1.627-.78l-2.781-5.02c-.475-.88-1.187-1.254-1.187-1.254v-.068c2.78-.95 4.544-3.323 4.544-6.68 0-3.392-1.763-5.562-4.442-6.444-1.357-.406-2.815-.508-4.578-.508zM26.16 25.453c2.205 0 3.493 1.425 3.493 3.494 0 1.526-.712 2.882-1.933 3.391-.508.203-1.153.271-1.73.271h-4.476v-7.155h4.646zm25.701-9.494s.068.915.441 2.102l2.272 6.816h-5.561l2.306-6.816c.339-1.187.44-2.102.44-2.102h.102zm28.177-.306c1.119 0 2.034.136 2.713.441 1.322.543 1.899 1.764 1.899 3.324 0 2.577-1.526 3.967-3.866 3.967h-4.002v-7.732h3.256zm-54.793 0c.847 0 1.492.102 2.068.374.95.508 1.39 1.56 1.39 2.746 0 1.832-1.05 3.154-2.95 3.154h-4.239v-6.274h3.73z" fill="#16163F" data-color="1"></path>
        <path d="M197.48.13v50.5h-86.847V.13h86.847zm-62.257 11.963h-3.832l-6.036 5.799 2.577 2.713 1.933-1.832c.78-.78 1.051-1.356 1.051-1.356h.068s-.03.709-.034 1.465V32.61h-5.256v3.561h14.717v-3.56h-5.188V12.092zm19.224-.407c-5.765 0-7.97 4.815-7.97 4.815l3.052 2.103s1.73-3.018 4.545-3.018c2.034 0 3.662 1.153 3.662 3.425 0 5.188-11.53 6.341-11.53 15.023 0 .678.102 1.356.238 2.136h16.684v-6.613h-3.798v3.052h-8.308c.101-4.95 11.292-6.341 11.292-13.802 0-4.544-3.628-7.121-7.867-7.121zm25.226.407h-3.832l-6.036 5.799 2.577 2.713 1.933-1.832c.78-.78 1.051-1.356 1.051-1.356h.068s-.03.709-.034 1.465V32.61h-5.256v3.561h14.717v-3.56h-5.188V12.092z" fill="#16163F" data-color="1"></path>
    </g>
</svg>