<svg preserveAspectRatio="xMidYMid meet" data-bbox="0.424 0.937 185.415 23.599" xmlns="http://www.w3.org/2000/svg" viewBox="0.424 0.937 185.415 23.599" height="25" width="186" data-type="color" role="presentation" aria-hidden="true"><defs><style>#comp-kq5dfsho svg [data-color="1"] {fill: #16163F;}</style></defs>
    <g>
        <path d="M20.887 24.076l1.708-.016c.56 0 1.107-.016 1.644-.048.355-.022.612-.06.773-.113.162-.054.344-.132.548-.234a.894.894 0 0 0 .427-.403c.08-.166.121-.392.121-.676 0-.285-.14-.46-.419-.524-.107-.032-.34-.067-.7-.105a1.743 1.743 0 0 1-.92-.354c-.252-.199-.378-.535-.378-1.007V4.886c0-.592.21-.984.629-1.177.118-.054.343-.1.676-.137.333-.038.602-.102.806-.193.204-.092.306-.256.306-.492 0-.505-.424-.908-1.273-1.208-.44-.161-1.434-.242-2.98-.242h-.613c-.376 0-.838.016-1.386.048-.376.022-.663.062-.862.121a5.86 5.86 0 0 0-.62.226.958.958 0 0 0-.468.378 1.09 1.09 0 0 0-.145.572c0 .22.062.395.186.524.123.129.459.22 1.007.274.806.075 1.208.51 1.208 1.305v6.655H6.353V4.885c0-.601.21-.988.629-1.16.118-.054.343-.097.676-.129.752-.086 1.128-.322 1.128-.709-.021-.677-.462-1.117-1.32-1.321-.42-.086-1.379-.129-2.877-.129-1.499 0-2.516.048-3.054.145-.419.075-.709.212-.87.41a1.035 1.035 0 0 0-.241.67c0 .247.032.445.096.596.065.15.435.252 1.112.306.806.064 1.209.505 1.209 1.321v15.71c0 .591-.21.973-.629 1.145-.118.053-.349.107-.693.16-.73.098-1.095.334-1.095.71.032.666.462 1.106 1.289 1.321.408.086 1.364.129 2.868.129h.294c1.344-.007 2.272-.06 2.783-.161.43-.075.726-.212.887-.411.16-.199.241-.47.241-.814 0-.343-.145-.548-.435-.612-.096-.032-.327-.067-.693-.105a1.753 1.753 0 0 1-.926-.354c-.253-.199-.379-.535-.379-1.007v-7.203h13.81v7.203c0 .569-.21.95-.63 1.144-.128.064-.356.118-.684.16-.328.044-.59.116-.79.218-.198.102-.298.288-.298.556 0 .269.081.505.242.71.365.461 1.327.692 2.884.692zm27.644.322c2.32 0 4.405-.392 6.252-1.176 3.255-1.386 4.883-3.475 4.883-6.268V4.176c0-.215.225-.376.676-.483l1.354-.322c.451-.108.677-.274.677-.5a1.06 1.06 0 0 0-.161-.588c-.108-.167-.277-.3-.508-.403a4.965 4.965 0 0 0-.7-.25 4.957 4.957 0 0 0-.927-.137 19.761 19.761 0 0 0-1-.048 45.27 45.27 0 0 0-.853-.008c-.285 0-.583-.003-.895-.008a13.698 13.698 0 0 0-.677 0c-.14.005-.349.01-.628.016-.28.005-.489.021-.628.048-.14.027-.315.062-.524.105-.21.043-.37.102-.483.177a4.43 4.43 0 0 0-.347.258.777.777 0 0 0-.25.363 1.578 1.578 0 0 0-.072.5c0 .187.225.33.677.426.45.097.9.202 1.345.314.446.113.669.293.669.54v12.44c0 .902-.226 1.71-.677 2.425a5 5 0 0 1-1.837 1.716c-.773.43-1.638.757-2.594.983-.956.225-2.047.338-3.271.338-1.225 0-2.439-.215-3.642-.644-1.203-.43-2.18-1.05-2.932-1.862-.752-.81-1.128-1.726-1.128-2.747V4.176c0-.215.225-.376.676-.483l1.354-.322c.451-.108.677-.274.677-.5a1.06 1.06 0 0 0-.17-.596c-.112-.172-.295-.309-.547-.411a5.404 5.404 0 0 0-.741-.242 6.017 6.017 0 0 0-1-.129 24.741 24.741 0 0 0-1.063-.048 50.3 50.3 0 0 0-.943-.008H37.22c-.548 0-.967.021-1.257.064-.172.033-.379.07-.62.113-.242.043-.427.1-.556.17-.13.07-.26.155-.395.257a.889.889 0 0 0-.29.363c-.06.14-.089.303-.089.491s.234.33.701.427c.468.097.932.202 1.394.314.462.113.693.293.693.54v12.665c0 1.032.228 1.977.685 2.836a6.361 6.361 0 0 0 1.829 2.143c2.32 1.719 5.392 2.578 9.216 2.578zm23.922-.241c2.03.515 3.851.505 5.463-.033.397-.14.725-.34.982-.604.258-.263.387-.561.387-.894 0-.183-.225-.368-.677-.556l-1.353-.564c-.451-.188-.677-.373-.677-.556V6.61c7.853 8.582 12.934 14.098 15.243 16.548.774.838 1.43 1.256 1.966 1.256.698 0 1.048-.59 1.048-1.772l.016-18.127c0-.14.445-.387 1.337-.742.892-.354 1.337-.601 1.337-.74 0-1.397-1.546-2.096-4.64-2.096-1.257 0-2.31.323-3.158.967-.44.333-.661.71-.661 1.128 0 .161.462.414 1.386.757l.19.073c.797.305 1.195.523 1.195.653v11.488l.017.113v2.111L76.707 1.807v.017c-.29-.258-1.026-.387-2.207-.387h-.21c-.687 0-1.251.021-1.692.064a2.9 2.9 0 0 0-.741.13 3.537 3.537 0 0 0-.548.25.92.92 0 0 0-.395.402 1.26 1.26 0 0 0-.12.556c0 .204.464.427 1.393.669.93.241 1.394.464 1.394.668V20.95c0 .29-.23.508-.693.653-.462.145-.926.282-1.394.41-.467.13-.7.323-.7.58 0 .763.553 1.284 1.66 1.564zm43.289-.098c.16-.001.364-.007.613-.015.312-.01.554-.03.726-.057.171-.026.378-.061.62-.104s.427-.102.556-.177a5.38 5.38 0 0 0 .475-.323c.188-.14.282-.397.282-.773 0-.258-.46-.465-1.378-.62-.918-.156-1.377-.39-1.377-.701V3.45l4.72.016c.334 0 .63.186.887.556.258.37.457.782.596 1.233.366 1.192.822 1.788 1.37 1.788.838 0 1.257-.462 1.257-1.385 0-.484-.038-.951-.113-1.402-.28-1.816-.972-2.75-2.079-2.804a253.11 253.11 0 0 0-4.589-.031l-1.024-.001h-10.113c-1.225 0-2.07.346-2.538 1.04-.467.692-.7 1.726-.7 3.101 0 .988.418 1.482 1.256 1.482.505 0 .975-.596 1.41-1.788.435-1.193.916-1.789 1.442-1.789l4.721-.016v17.84c0 .279-.225.461-.677.547-.45.086-.902.17-1.353.25-.451.08-.677.255-.677.524 0 .967 1.3 1.45 3.9 1.45h1.787zm33.204.065c1.096 0 2.095-.43 2.997-1.289.903-.859 1.354-1.826 1.354-2.9 0-1.074-.42-1.611-1.257-1.611-.44 0-.86.228-1.257.684a10.484 10.484 0 0 0-1.16 1.668c-.376.655-.66 1.08-.854 1.273h-10.296v-8.717h6.896c.086.15.228.467.427.95.199.484.392.833.58 1.048a.91.91 0 0 0 .717.322c.548 0 .948-.32 1.2-.959.253-.639.38-1.399.38-2.28 0-2.062-.608-3.093-1.822-3.093-.225 0-.585.5-1.08 1.498-.182.365-.31.586-.386.66h-6.912v-8.04h10.892c-.01.258-.016.739-.016 1.442 0 .704.132 1.273.395 1.708.263.436.738.653 1.426.653 1.106 0 1.66-.795 1.66-2.385 0-.924-.25-1.708-.75-2.352-.5-.645-1.157-.967-1.974-.967h-13.422c-1.482 0-2.492.048-3.03.145-.418.075-.711.212-.878.41a.975.975 0 0 0-.25.637c0 .226.022.409.065.548.022.054.057.1.105.137.048.038.089.067.12.089.033.021.092.04.178.056s.193.032.322.049c.13.016.269.034.42.056.805.107 1.208.548 1.208 1.321v15.71c0 .591-.21.973-.629 1.145-.118.053-.349.107-.693.16-.73.098-1.095.334-1.095.71.032.666.472 1.112 1.321 1.337.408.075 1.354.113 2.836.113l12.262.064zm34.21.194c1.789 0 2.683-.425 2.683-1.273a.882.882 0 0 0-.274-.645c-1.471 0-2.543-.255-3.214-.765a13.13 13.13 0 0 1-1.958-1.861 20.54 20.54 0 0 1-.919-1.12 43.632 43.632 0 0 1-.846-1.128c-.22-.306-.518-.728-.894-1.265l-.57-.81-.23-.322-.102-.14-.838-1.16c1.482-.291 2.76-.753 3.835-1.387a7.041 7.041 0 0 0 1.539-1.2 5.183 5.183 0 0 0 1.03-1.636 5.258 5.258 0 0 0 .396-2.006c0-.693-.078-1.297-.234-1.812a5.065 5.065 0 0 0-.62-1.354 4.077 4.077 0 0 0-1.023-1.04 7.885 7.885 0 0 0-1.298-.765 8.649 8.649 0 0 0-1.595-.531 29.145 29.145 0 0 0-2.352-.444c-.946-.145-2.793-.217-5.543-.217h-2.788c-.902 0-1.67.021-2.304.064a7.134 7.134 0 0 0-1.128.13c-.3.064-.596.147-.886.25-.29.101-.508.235-.653.402a.856.856 0 0 0-.217.58c0 .22.225.376.676.467.452.092.903.19 1.354.298.451.108.677.29.677.548V21.29c0 .43-.452.66-1.354.692a2.472 2.472 0 0 0-.934.202c-.28.123-.42.357-.42.7 0 .344.183.608.548.79.183.097.395.175.637.234.242.059.505.097.79.113a28.045 28.045 0 0 0 1.861.032c.311-.005.91-.008 1.796-.008s1.62-.048 2.2-.145c.45-.086.762-.234.934-.443.172-.21.258-.492.258-.846 0-.161-.226-.304-.677-.427a42.838 42.838 0 0 1-1.353-.395c-.451-.14-.677-.306-.677-.5v-7.202h4.463l1.338 2.45c1.847 3.426 3.475 5.72 4.882 6.88h-.016c.892.601 2.232.902 4.02.902zM172.82 12.136h-4.351V5.643c0-.946.204-1.563.612-1.854.409-.29 1.335-.435 2.78-.435 1.445 0 2.758.178 3.94.532.709.204 1.3.478 1.772.822.473.344.857.811 1.152 1.402.296.59.443 1.262.443 2.014 0 2.675-2.116 4.012-6.348 4.012z" fill="#16163F" data-color="1"></path>
    </g>
</svg>