<svg preserveAspectRatio="xMidYMid meet" data-bbox="-0.01 0.796 245.721 51.114" xmlns="http://www.w3.org/2000/svg" viewBox="-0.01 0.796 245.721 51.114" height="52" width="246" data-type="color" role="presentation" aria-hidden="true"><defs><style>#comp-kq5dfshr svg [data-color="1"] {fill: #16163F;}</style></defs>
    <g>
        <path d="M9.602 43.744c0-.624.052-1.3.104-2.08 7.124-1.196 11.96-1.664 16.536-1.768 1.976 0-1.508-5.044-2.392-5.096-3.068-.156-7.436.26-13.52 1.56 1.508-10.348 4.888-25.22 6.864-31.668-.988-.78-5.304-2.548-6.708-1.716C8.198 9.424 4.974 28.3 3.57 37.972c-1.04.312-2.132.572-3.276.884-1.196.312 1.404 4.316 3.12 4.004l.364-.104c1.716.832 5.772 2.184 5.824.988zm22.1-1.768c8.632 0 11.18-12.48 11.492-18.252.156-5.46-.988-10.556-8.008-10.556-1.404 0-2.392.624-2.392.624-.156-.468-.832-.936-1.716-1.3-4.212.988-8.476 9.672-8.788 16.484-.208 5.772 2.34 13 9.412 13zm-.884-4.472c-1.976 0-2.86-3.016-2.652-6.708.104-1.82.468-3.172.468-3.172.26.208 1.352.624 1.404.416.572-2.756 3.068-11.336 5.928-11.336 1.976 0 1.56 3.484 1.456 4.888-.156 2.912-2.028 15.912-6.604 15.912zm23.816 5.252c8.424 0 11.336-7.54 11.336-10.14 0-2.444-1.248-3.38-2.548-3.38-.884 0-1.664.312-1.664.312-.416 3.484-3.276 8.996-7.384 8.996-2.288 0-3.952-1.456-3.952-6.24 0-7.696 2.756-14.716 5.252-14.716.572 0 .832.468.78 1.196-.104 3.172-1.924 5.72-1.924 5.72 0 .052 0 .208.052.312.156 1.456 1.144 2.392 2.912 2.392 2.34 0 4.472-2.6 4.472-7.436 0-3.484-3.952-5.98-7.332-5.98-7.644 0-11.18 10.504-11.18 17.316 0 7.124 4.94 11.648 11.18 11.648zm17.576-.78c8.632 0 11.18-12.48 11.492-18.252.156-5.46-.988-10.556-8.008-10.556-1.404 0-2.392.624-2.392.624-.156-.468-.832-.936-1.716-1.3-4.212.988-8.476 9.672-8.788 16.484-.208 5.772 2.34 13 9.412 13zm-.884-4.472c-1.976 0-2.86-3.016-2.652-6.708.104-1.82.468-3.172.468-3.172.26.208 1.352.624 1.404.416.572-2.756 3.068-11.336 5.928-11.336 1.976 0 1.56 3.484 1.456 4.888-.156 2.912-2.028 15.912-6.604 15.912zm36.816 5.252c8.32 0 12.324-7.332 12.324-11.232 0-2.184-.832-3.796-1.872-4.888a41.955 41.955 0 0 1 5.252-.468c.832 0 .936-.728.936-1.092 0-.416-1.144-1.924-2.08-2.808-.416-.416-.832-.572-2.34-.572-1.664 0-5.096.416-7.54 1.196-2.34-.572-6.136-.156-6.136 1.508 0 .936 1.664 4.108 3.068 3.9.884-.104 2.028-.364 3.38-.676.52.728.936 1.716.936 3.016 0 4.472-3.068 7.436-7.228 7.436-3.276 0-5.2-3.172-5.2-8.216 0-10.504 7.176-23.036 10.712-23.036.728 0 1.768.52 1.768 1.976 0 4.524-3.328 6.916-3.328 7.436 0 .572 1.82 2.548 3.9 2.548 2.652 0 5.2-3.536 5.2-8.06 0-4.472-4.108-8.008-8.788-8.008-9.828 0-15.912 16.276-15.912 25.272 0 8.84 4.836 14.768 12.948 14.768zm21.424-2.028c.26-7.436 2.808-14.352 4.004-17.16.156 2.392.884 5.2 4.784 5.2 3.432 0 5.616-3.432 5.668-5.928 0-1.456-1.664-1.56-1.976-1.56-.312 0-1.248 3.744-3.64 3.744-.78 0-1.352-.78-1.352-1.456.104-3.536 2.548-6.812 2.6-8.58.052-.988-.416-1.82-2.236-2.236-2.132-.468-3.692 0-4.108 1.404-.676 2.34-1.768 6.76-3.068 9.88l-.312-.156c.208-2.86.936-6.448 1.144-9.1 0 0-2.496-1.456-4.16-1.456-1.84 0-2.402 3.462-2.714 7.142l-.043.54c-.029.36-.055.722-.08 1.08l-.038.536-.037.53c-.78 10.452-1.352 13.832-1.352 15.34 0 1.144 5.408 2.964 6.916 2.236zm30.888.676c4.992 0 7.488-5.252 7.488-8.268 0-2.808-3.172-2.392-3.172-2.392-.364 3.276-1.04 6.448-3.432 6.448-1.508 0-1.872-1.664-1.768-3.9.052-3.952 1.196-9.256 2.756-14.508.364-1.144-2.236-1.196-2.808-1.404 0 0 .104-.364.104-.676 0-2.08-2.756-4.368-7.54-4.368-7.384 0-11.856 9.36-11.856 18.616 0 6.552 3.64 10.452 8.788 10.452 2.912 0 5.252-1.976 6.292-3.796h.312c.156 1.248 1.3 3.796 4.836 3.796zm-11.96-4.264c-1.196 0-1.612-1.196-1.508-4.212.208-5.096 2.6-16.692 5.876-16.692.744 0 .825.848.832 1.364v.248a9.083 9.083 0 0 1-1.716 4.836c.624.78 2.08 1.092 2.08 1.092-.104 1.768-2.912 13.364-5.564 13.364zm18.096 14.768c.52-.052.988-.052 1.248-1.144.312-1.82.832-7.8 1.456-11.908.884 1.716 2.548 2.86 5.304 2.86 7.436 0 11.128-11.128 11.284-18.096.104-5.304-2.08-10.296-7.696-10.296-1.924 0-3.796 1.404-5.408 3.692.052-.624.156-1.248.26-1.872.052-.572-3.224-2.184-4.784-2.184-1.82 0-3.172 11.18-3.432 17.628-1.82 9.62-4.108 19.448-2.912 19.916.988.52 4.108 1.456 4.68 1.404zm7.228-14.56c-1.924 0-2.652-3.016-2.496-6.708.104-1.612.52-3.172.52-3.172.26.26 1.144.624 1.196.468.572-2.756 3.016-11.284 5.772-11.284 1.872 0 1.508 3.432 1.404 4.888-.156 2.86-2.028 15.808-6.396 15.808zm18.148 4.264c1.352 0 2.028-.572 2.028-.572.468-6.604 4.628-16.64 5.564-17.888l.572.104c-.364 1.3-1.56 6.864-1.56 10.036 0 4.004 1.768 8.164 6.552 8.164 4.836 0 8.944-3.692 8.944-7.384 0-2.496-2.964-2.184-2.964-2.184-.572 2.86-2.132 5.98-3.9 5.98-1.56 0-2.184-1.508-2.184-3.484 0-5.824 3.276-16.068 3.276-18.72 0-1.144-3.12-2.912-6.292-2.912-2.34 0-6.968 12.636-8.06 15.756l-.468-.104c0-2.184 2.132-15.392 2.912-18.304.52-2.184 1.508-4.368 1.508-7.176 0-1.352-4.888-2.704-5.876-1.872-2.496 2.236-5.408 31.356-5.408 36.296 0 2.288 2.6 4.264 5.356 4.264zm27.04-30.472c4.628 0 6.136-3.38 6.136-5.2 0-1.56-1.092-2.184-2.184-2.652.52-1.82-.572-2.184-2.392-2.184-3.692 0-4.628 4.836-4.628 6.396 0 2.6 1.924 3.64 3.068 3.64zm-2.08 30.992c5.98 0 9.62-5.408 9.62-8.892 0-2.808-3.276-2.496-3.276-2.496-.156 1.976-1.352 7.228-4.264 7.228-.78 0-1.404-.832-1.352-2.652.048-3.518 2.196-11.86 3.628-16.913l.22-.77.104-.361c.624-2.132-4.836-2.912-5.564-2.912-.468 0-.988.104-1.196.676-1.3 3.692-4.212 15.288-4.212 20.228 0 4.628 2.34 6.864 6.292 6.864zm24.648.468l1.456-1.144c.676-.572.26-1.716-.208-2.6a251.613 251.613 0 0 0-5.98-10.868c3.38-4.212 6.968-8.476 8.84-9.516.364-.988-2.808-4.524-3.952-4.524-1.404 0-4.836 3.536-8.684 7.956-1.768-2.756-3.536-5.148-5.044-6.76-.936-.936-2.028-1.144-2.392-.832l-1.612 1.924c-.364.416-.988.988-.104 1.768 1.976 1.924 4.004 4.68 5.98 7.696-3.536 4.264-6.916 8.684-8.996 11.232-.728.884 2.548 4.42 3.588 4.368 0 0 2.132-.156 5.668-3.692l-.312-.988c.832-.936 2.236-2.652 3.848-4.68 2.236 3.9 4.212 7.644 5.72 10.244.572 1.04 1.612.832 2.184.416z" fill="#16163F" data-color="1"></path>
    </g>
</svg>