<svg preserveAspectRatio="xMidYMid meet" data-bbox="0.405 0.672 246.651 33" xmlns="http://www.w3.org/2000/svg" viewBox="0.405 0.672 246.651 33" height="34" width="248" data-type="color" role="presentation" aria-hidden="true"><defs><style>#comp-kq5dfshv svg [data-color="1"] {fill: #16163F;}</style></defs>
    <g>
        <path d="M29.84 33.672c2.333 0 3.213-1.716 3.213-3.52V4.412c0-2.904-1.98-3.564-3.916-3.564h-2.024c-2.244 0-3.3.88-4.048 3.3l-6.204 20.328h-.088L10.481 4.148c-.748-2.42-1.804-3.3-4.048-3.3H4.321c-1.936 0-3.916.66-3.916 3.564v25.74c0 1.804.88 3.52 3.212 3.52 2.332 0 3.212-1.716 3.212-3.52V10.528h.088l6.732 21.032c.484 1.496 1.584 2.112 3.08 2.112s2.596-.616 3.08-2.112l6.732-21.032h.088v19.624c0 1.804.88 3.52 3.212 3.52zM41.358 7.36a3.343 3.343 0 0 0 3.344-3.344A3.343 3.343 0 0 0 41.358.672a3.343 3.343 0 0 0-3.344 3.344 3.343 3.343 0 0 0 3.344 3.344zm0 26.312c2.508 0 3.212-1.496 3.212-3.212V12.728c0-1.716-.704-3.212-3.212-3.212s-3.212 1.496-3.212 3.212V30.46c0 1.716.704 3.212 3.212 3.212zm26.52 0c1.98 0 2.904-1.056 2.904-3.036V4.06c0-2.112-1.276-3.212-3.212-3.212-1.936 0-3.212 1.1-3.212 3.212v8.712h-.088c-1.276-2.068-3.476-3.256-6.336-3.256-6.776 0-9.9 5.764-9.9 11.924 0 8.316 4.708 12.232 10.076 12.232 3.124 0 5.72-1.32 6.776-4.048h.088v1.012c0 1.98 1.012 3.036 2.904 3.036zm-8.316-5.016c-3.432-.088-5.104-3.212-5.104-6.996 0-2.992 1.012-7.128 5.104-7.128 3.916-.044 5.148 3.828 5.148 7.128 0 3.652-1.408 6.996-5.148 6.996zm41.426 4.444c9.636 0 15.224-5.808 15.224-15.84 0-12.408-7.216-15.84-15.092-15.84h-8.8c-2.552 0-4.224 1.012-4.224 4.224v23.232c0 3.212 1.672 4.224 4.224 4.224h8.668zm.396-5.808h-6.072V7.228h6.028c5.28 0 7.656 3.784 7.656 10.032 0 4.884-1.848 10.032-7.612 10.032zm21.857 6.38c2.508 0 3.212-1.496 3.212-3.212v-7.48c0-5.324 1.408-7.128 4.004-7.128h1.144c1.584 0 3.168-.836 3.168-3.212 0-1.804-1.496-3.124-3.52-3.124-3.124 0-4.576 2.772-5.324 5.456h-.088v-2.464c0-1.936-1.276-2.992-2.904-2.992s-2.904 1.056-2.904 2.992V30.46c0 1.716.704 3.212 3.212 3.212zm24.188 0c3.872 0 10.076-1.804 10.076-5.676 0-1.188-1.1-2.508-2.64-2.508-2.596 0-2.596 3.168-7.436 3.168-3.74 0-5.94-2.464-5.94-5.852h14.52c2.156 0 2.816-.572 2.816-2.772 0-5.28-4.224-10.516-11.616-10.516-7.612 0-12.144 5.016-12.144 12.496 0 5.588 3.388 11.66 12.364 11.66zm5.324-14.564H141.49c.704-3.124 2.64-5.104 5.852-5.104 2.86 0 5.06 2.156 5.412 5.104zm28.281 14.564c1.54 0 2.904-1.012 2.904-2.464 0-1.012-.66-1.628-.66-4.312v-10.78c0-4.62-4.268-6.6-10.428-6.6-6.6 0-10.208 3.256-10.208 5.808 0 1.32 1.1 2.464 2.728 2.464 2.552 0 2.684-3.52 7.436-3.52 2.156 0 4.048.792 4.048 2.64s-1.232 2.2-2.772 2.376l-3.916.44c-4.928.572-8.976 2.068-8.976 7.392 0 4.048 3.608 6.556 7.26 6.556 3.388 0 6.292-.968 8.8-3.74.088 1.98 1.012 3.74 3.784 3.74zm-9.856-4.224c-2.2 0-3.564-1.188-3.564-2.64 0-1.936 1.452-2.772 4.136-3.168l2.332-.352c.748-.132 2.068-.352 2.772-1.012v2.508c0 2.376-2.156 4.664-5.676 4.664zm49.049 4.224c2.508 0 3.212-1.496 3.212-3.212V17.304c0-5.764-3.564-7.788-8.008-7.788-3.476 0-5.764 1.54-7.568 4.048-1.188-3.036-3.96-4.048-6.16-4.048-3.256 0-6.072 1.496-7.744 4.048h-.088v-.836c0-1.936-1.144-3.212-3.036-3.212-1.892 0-3.036 1.276-3.036 3.212V30.46c0 1.716.704 3.212 3.212 3.212s3.212-1.496 3.212-3.212V19.768c0-2.992 2.2-4.972 4.664-4.972 2.508 0 3.52 1.848 3.52 4.136V30.46c0 1.716.704 3.212 3.212 3.212s3.212-1.496 3.212-3.212V19.768c0-2.992 2.2-4.972 4.664-4.972 2.508 0 3.52 1.848 3.52 4.136V30.46c0 1.716.704 3.212 3.212 3.212zm16.929 0c4.84 0 9.9-2.42 9.9-7.656 0-4.488-4.356-6.028-8.008-6.864l-2.684-.616c-1.98-.44-3.432-.792-3.432-2.288 0-1.364 1.452-1.98 3.696-1.98 4.048 0 4.136 2.948 6.644 2.948 1.672 0 2.684-1.32 2.684-2.816 0-2.948-4.928-4.884-9.812-4.884-4.444 0-9.636 1.936-9.636 7.172 0 4.312 2.904 5.852 6.644 6.776l3.784.924c2.288.572 3.696.836 3.696 2.464 0 1.32-1.452 2.332-3.74 2.332-4.752 0-5.016-3.96-7.788-3.96-1.804 0-2.596 1.276-2.596 2.684 0 3.168 4.84 5.764 10.648 5.764z" fill="#16163F" data-color="1"></path>
    </g>
</svg>